<?xml version="1.0" standalone="no"?>
<!DOCTYPE svg PUBLIC "-//W3C//DTD SVG 20010904//EN"
 "http://www.w3.org/TR/2001/REC-SVG-20010904/DTD/svg10.dtd">
<svg version="1.0" xmlns="http://www.w3.org/2000/svg"
 width="466.000000pt" height="99.000000pt" viewBox="0 0 466.000000 99.000000"
 preserveAspectRatio="xMidYMid meet">

<g transform="translate(0.000000,99.000000) scale(0.100000,-0.100000)"
fill="#000000" stroke="none">
<path d="M480 663 c-34 -13 -60 -47 -60 -80 0 -49 13 -68 81 -114 33 -22 65
-51 71 -64 14 -31 2 -76 -22 -82 -36 -9 -21 -21 16 -13 52 12 84 46 84 89 0
41 -18 66 -75 106 -67 48 -95 78 -95 100 0 27 26 52 60 58 19 3 16 4 -10 5
-19 0 -42 -2 -50 -5z"/>
<path d="M790 647 c-136 -72 -114 -307 32 -333 l33 -6 -24 17 c-36 27 -51 76
-51 162 1 131 44 193 118 167 78 -28 95 -245 26 -319 l-25 -28 27 7 c123 31
160 221 62 314 -50 46 -132 54 -198 19z"/>
<path d="M1864 651 c-122 -55 -135 -252 -21 -321 18 -11 43 -20 57 -20 l24 0
-23 16 c-13 9 -29 32 -37 50 -21 49 -18 170 5 220 22 47 31 55 81 65 l35 7
-40 1 c-22 0 -58 -8 -81 -18z"/>
<path d="M4080 663 c-35 -13 -60 -47 -60 -82 0 -43 17 -65 92 -120 74 -53 92
-113 40 -136 -23 -10 -31 -27 -9 -21 6 3 24 7 39 10 39 9 68 44 68 82 0 51 -8
62 -86 119 -81 60 -99 92 -69 125 9 10 29 21 44 23 20 3 18 4 -9 5 -19 0 -42
-2 -50 -5z"/>
<path d="M582 646 c10 -7 24 -28 32 -47 l15 -34 1 42 c0 32 -3 41 -14 37 -8
-3 -17 -1 -21 5 -3 6 -12 11 -18 11 -7 0 -4 -6 5 -14z"/>
<path d="M1072 647 c7 -8 42 -86 78 -175 70 -174 87 -193 109 -124 7 20 15 44
17 52 4 12 4 12 -4 2 -7 -10 -22 19 -56 102 -49 124 -53 141 -33 149 6 3 -19
6 -56 6 -57 1 -66 -1 -55 -12z"/>
<path d="M1323 649 c10 -6 17 -23 18 -42 0 -31 0 -31 10 -7 6 13 17 33 26 42
15 17 14 18 -28 18 -35 -1 -40 -3 -26 -11z"/>
<path d="M1433 649 c15 -9 17 -28 17 -165 0 -151 -1 -155 -22 -164 -17 -6 0
-9 57 -8 44 0 73 2 64 5 -21 5 -29 33 -29 106 0 56 0 57 29 57 37 0 48 -14 62
-81 17 -82 23 -89 74 -89 24 0 47 5 50 10 3 6 -3 10 -14 10 -15 0 -22 11 -31
52 -12 58 -33 88 -62 88 -10 0 -18 5 -18 10 0 6 7 10 16 10 8 0 29 13 45 29
57 57 24 128 -63 137 -23 2 -36 1 -28 -2 28 -12 40 -38 40 -84 0 -56 -21 -80
-69 -80 l-33 0 4 76 c2 52 8 78 18 84 10 7 -8 10 -55 10 -52 -1 -66 -3 -52
-11z"/>
<path d="M2019 634 c17 -14 31 -33 31 -42 0 -10 5 -24 10 -32 7 -11 10 3 10
45 -1 47 -3 56 -11 42 -10 -17 -13 -17 -34 -3 -37 24 -40 19 -6 -10z"/>
<path d="M2154 644 c9 -8 16 -26 16 -39 0 -13 4 -25 8 -27 4 -1 54 -61 111
-133 56 -72 107 -131 112 -133 5 -2 9 22 9 53 0 42 -5 61 -20 77 -10 11 -54
65 -97 119 -74 93 -80 98 -116 98 -35 1 -37 0 -23 -15z"/>
<path d="M2383 649 c10 -6 22 -20 27 -32 l9 -22 0 22 c1 12 9 27 19 32 13 8 7
10 -28 10 -36 0 -42 -2 -27 -10z"/>
<path d="M2628 653 c9 -3 12 -46 12 -164 0 -156 0 -160 -22 -169 -16 -6 4 -9
67 -8 51 0 79 3 65 7 -24 6 -25 11 -28 84 -3 76 -3 77 22 77 14 0 31 -9 40
-22 15 -21 16 -20 16 32 -1 46 -2 52 -12 35 -14 -25 -28 -35 -50 -35 -16 0
-18 10 -18 80 l0 80 43 0 c47 0 68 -15 86 -60 10 -25 10 -24 10 7 1 17 4 38 7
47 5 14 -9 16 -122 15 -71 0 -123 -3 -116 -6z"/>
<path d="M2992 630 c-11 -30 -8 -39 64 -228 13 -34 24 -65 24 -67 0 -3 -10
-10 -22 -15 -17 -6 -1 -9 57 -9 54 0 75 3 64 9 -9 5 -44 84 -79 175 -48 127
-67 165 -80 165 -11 0 -22 -12 -28 -30z"/>
<path d="M3224 644 c13 -12 16 -41 16 -147 0 -147 -5 -174 -29 -180 -9 -3 20
-5 64 -5 57 -1 74 2 58 8 -21 9 -23 16 -23 85 0 73 1 75 24 75 35 0 53 -22 61
-77 10 -71 27 -93 75 -93 21 0 42 5 46 12 4 6 3 8 -3 5 -16 -10 -30 13 -38 62
-7 45 -34 81 -60 81 -25 0 -17 15 15 27 36 13 61 64 51 102 -8 28 -60 61 -98
61 -22 0 -22 0 4 -26 22 -22 25 -32 20 -70 -6 -56 -21 -74 -63 -74 l-34 0 0
73 c0 43 5 78 12 85 9 9 -2 12 -51 12 -57 0 -61 -1 -47 -16z"/>
<path d="M3563 653 c15 -4 17 -20 17 -158 0 -148 -1 -154 -22 -169 -21 -15
-20 -16 32 -16 51 0 53 1 30 13 -25 12 -25 14 -28 157 -1 96 1 140 8 130 5 -8
35 -77 66 -152 31 -76 59 -138 63 -138 14 0 39 93 30 109 -5 9 -29 63 -53 121
l-43 105 -59 2 c-32 1 -51 -1 -41 -4z"/>
<path d="M3851 638 c-5 -13 -5 -24 0 -26 11 -4 12 -262 1 -278 -4 -6 -14 -14
-22 -17 -8 -3 21 -5 65 -6 57 0 74 3 58 9 -22 9 -23 13 -23 164 0 137 2 156
18 165 13 8 5 10 -36 11 -46 0 -54 -3 -61 -22z"/>
<path d="M4183 648 c9 -7 23 -26 32 -43 12 -24 15 -26 15 -10 0 11 3 31 7 45
5 21 4 23 -8 13 -10 -8 -20 -9 -29 -3 -22 14 -36 12 -17 -2z"/>
<path d="M1970 447 c21 -10 26 -21 28 -62 3 -38 -1 -52 -14 -62 -25 -18 -11
-16 31 4 31 15 37 15 45 3 7 -10 10 4 10 46 0 33 5 65 12 72 9 9 -5 12 -62 12
-67 0 -72 -2 -50 -13z"/>
<path d="M4021 375 c-1 -42 2 -51 17 -52 9 -1 28 -4 42 -7 23 -6 23 -6 3 3
-23 10 -40 37 -54 80 -6 21 -7 16 -8 -24z"/>
<path d="M421 400 c-1 -8 -4 -33 -7 -55 -4 -28 -3 -36 4 -26 9 12 15 12 41 1
18 -7 34 -10 38 -6 3 3 0 6 -9 6 -20 0 -47 31 -58 66 -4 16 -9 22 -9 14z"/>
<path d="M2873 344 l-22 -34 47 1 c33 0 41 3 27 8 -11 4 -22 19 -25 33 l-5 25
-22 -33z"/>
<path d="M2160 348 c0 -9 -8 -22 -17 -27 -14 -8 -7 -10 32 -10 28 0 43 3 35 6
-8 3 -23 15 -32 27 -15 18 -18 18 -18 4z"/>
</g>
</svg>
